<?xml version="1.0" encoding="UTF-8" standalone="no"?>
<svg
   xmlns:dc="http://purl.org/dc/elements/1.1/"
   xmlns:cc="http://creativecommons.org/ns#"
   xmlns:rdf="http://www.w3.org/1999/02/22-rdf-syntax-ns#"
   xmlns:svg="http://www.w3.org/2000/svg"
   xmlns="http://www.w3.org/2000/svg"
   xmlns:sodipodi="http://sodipodi.sourceforge.net/DTD/sodipodi-0.dtd"
   xmlns:inkscape="http://www.inkscape.org/namespaces/inkscape"
   id="Capa_1"
   enable-background="new 0 0 512.044 512.044"
   height="512"
   viewBox="0 0 512.044 512.044"
   width="512"
   version="1.1"
   sodipodi:docname="right.svg"
   inkscape:version="1.0.2 (e86c870879, 2021-01-15, custom)"
   inkscape:export-filename="D:\Development\Projects\stryde_app\images\right.png"
   inkscape:export-xdpi="300"
   inkscape:export-ydpi="300">
  <metadata
     id="metadata20">
    <rdf:RDF>
      <cc:Work
         rdf:about="">
        <dc:format>image/svg+xml</dc:format>
        <dc:type
           rdf:resource="http://purl.org/dc/dcmitype/StillImage" />
        <dc:title />
      </cc:Work>
    </rdf:RDF>
  </metadata>
  <defs
     id="defs18" />
  <sodipodi:namedview
     pagecolor="#ffffff"
     bordercolor="#666666"
     borderopacity="1"
     objecttolerance="10"
     gridtolerance="10"
     guidetolerance="10"
     inkscape:pageopacity="0"
     inkscape:pageshadow="2"
     inkscape:window-width="1920"
     inkscape:window-height="1027"
     id="namedview16"
     showgrid="false"
     inkscape:zoom="0.83984376"
     inkscape:cx="144.49703"
     inkscape:cy="368.81662"
     inkscape:window-x="-8"
     inkscape:window-y="-8"
     inkscape:window-maximized="1"
     inkscape:current-layer="g11"
     inkscape:document-rotation="0" />
  <linearGradient
     id="SVGID_1_"
     gradientUnits="userSpaceOnUse"
     x1="256.022"
     x2="256.022"
     y1="512.044"
     y2="0">
    <stop
       offset="0"
       stop-color="#a93aff"
       id="stop2"
       style="stop-color:#1de9b6;stop-opacity:1" />
    <stop
       offset="1"
       stop-color="#ff81ff"
       id="stop4"
       style="stop-color:#00bfa5;stop-opacity:1" />
  </linearGradient>
  <g
     id="g13">
    <g
       id="g11">
      <path
         d="M 239.90117,0.04416382 C 300.1041,1.3623344 365.46422,64.416855 365.46422,157.59838 c 0,48.84285 -5.8965,82.02816 -9.79751,103.99199 -0.98012,5.57547 -1.85199,10.38486 -2.42232,14.5169 -1.24642,9.03141 -8.95966,15.74631 -18.06284,15.74631 H 182.32971 c -11.0634,0 -19.46735,-9.72941 -18.09809,-20.50218 3.09964,-24.75948 -2.52934,-59.36997 -7.9443,-92.85806 -4.77413,-29.40956 -9.70754,-59.81504 -9.70754,-87.282599 0,-53.396855 45.04886,-92.7145764 93.32139,-91.16657718 z M 172.47991,328.33553 h 151.03512 c 11.26768,0 19.80296,10.11611 18.00932,21.17949 l -13.8408,85.72001 c -6.76353,43.13239 -44.6281,76.80897 -89.88367,76.80897 -53.44793,0 -90.6826,-44.83117 -91.2201,-95.19161 0.40981,-28.80397 4.07855,-53.05151 7.98078,-73.67894 1.61974,-8.60337 9.15544,-14.83792 17.91935,-14.83792 z"
         fill="url(#SVGID_1_)"
         id="path7"
         style="fill:#00bfa5;fill-opacity:1;stroke-width:1.21602"
         sodipodi:nodetypes="csccssccscssccsccs" />
      <text
         xml:space="preserve"
         style="font-size:138.274px;line-height:1.25;font-family:sans-serif;letter-spacing:0px;fill:#ffffff;stroke-width:3.45688"
         x="194.78444"
         y="213.86955"
         id="text839"><tspan
           sodipodi:role="line"
           id="tspan837"
           x="194.78444"
           y="213.86955"
           style="font-style:normal;font-variant:normal;font-weight:bold;font-stretch:normal;font-family:sans-serif;-inkscape-font-specification:'sans-serif Bold';fill:#ffffff;stroke-width:3.45688">R</tspan></text>
    </g>
  </g>
</svg>
